<svg data-v-0dd9719b="" version="1.0" xmlns="http://www.w3.org/2000/svg" xmlns:xlink="http://www.w3.org/1999/xlink" width="100%" height="100%" viewBox="0 0 340.000000 250.000000" preserveAspectRatio="xMidYMid meet" color-interpolation-filters="sRGB" style="margin: auto;"> <rect data-v-0dd9719b="" x="0" y="0" width="100%" height="100%" fill="#0077c0" fill-opacity="0" class="background"></rect> <rect data-v-0dd9719b="" x="0" y="0" width="100%" height="100%" fill="url(#watermark)" fill-opacity="1" class="watermarklayer"></rect> <g data-v-0dd9719b="" fill="#fff" class="iconbordersvg" transform="translate(105.91500091552734,63.21065902709961)"><g><polyline stroke="#fff" stroke-width="2" fill-opacity="0" points="42.385000228881836,107.49868154525757 0,107.49868154525757 0,27.959339141845703 46.084999084472656,27.959339141845703"></polyline> <polyline stroke="#fff" stroke-width="2" fill-opacity="0" points="85.78499794006348,107.49868154525757 128.1699981689453,107.49868154525757 128.1699981689453,27.959339141845703 82.08499908447266,27.959339141845703"></polyline></g> <g><g><rect data-gra="graph-name-bg" stroke-width="2" class="i-icon-bg" x="0" y="0" width="128.17000579833984" height="123.57868194580078" fill-opacity="0"></rect> <!----> <!----> </g> <g transform="translate(10,10)"><g transform="translate(0.000072479248046875,0)"><rect fill="#fff" width="36.08500289916992" height="1" fill-opacity="0" x="0" y="17.459339141845703"></rect> <g class="iconsvg-imagesvg" transform="matrix(1,0,0,1,39.08500289916992,0)" opacity="1"><g><!----> <svg filter="url(#colors4165098151)" x="0" y="0" width="30.00000000000014" height="35.91868010823512" filtersec="colorsf1698730968" class="image-svg-svg primary" style="overflow: visible;"><svg xmlns="http://www.w3.org/2000/svg" viewBox="101.30999755859375 10.034000396728516 1275.89404296875 1527.6219482421875"><path fill-rule="evenodd" clip-rule="evenodd" fill="#31469A" d="M1377.204 1537.656h-303.412V549.933H793.897v987.723H490.336v-800.91H209.24v692.984h80.171V774.287h107.931v763.369H101.31V628.814h496.957v800.916h87.702V332.37H397.342v258.903H289.411V224.439h504.486v217.566h387.826v987.725h87.554V117.965H980.653v286.496H872.722V10.034h504.482z"></path></svg></svg> <defs><filter id="colors4165098151"><feColorMatrix type="matrix" values="0 0 0 0 0.99609375  0 0 0 0 0.99609375  0 0 0 0 0.99609375  0 0 0 1 0" class="icon-fecolormatrix"></feColorMatrix></filter> <filter id="colorsf1698730968"><feColorMatrix type="matrix" values="0 0 0 0 0.99609375  0 0 0 0 0.99609375  0 0 0 0 0.99609375  0 0 0 1 0" class="icon-fecolormatrix"></feColorMatrix></filter> <filter id="colorsb6769692807"><feColorMatrix type="matrix" values="0 0 0 0 0  0 0 0 0 0  0 0 0 0 0  0 0 0 1 0" class="icon-fecolormatrix"></feColorMatrix></filter></defs></g></g> <rect fill="#fff" width="36.08500289916992" height="1" fill-opacity="0" x="72.08485221862793" y="17.459339141845703"></rect></g> <g transform="translate(0,38.918678283691406)"><g data-gra="path-name" fill-rule="" class="tp-name" transform="matrix(1,0,0,1,0,0)" opacity="1"><g transform="scale(1)"><g><path d="M25.48-44.52C12.48-44.52 2.27-34.45 2.27-21.71 2.27-9.04 12.48 0.98 25.48 0.98 38.48 0.98 48.69-9.04 48.69-21.71 48.69-34.45 38.48-44.52 25.48-44.52ZM25.48-8.84C18.39-8.84 13-14.3 13-21.71 13-29.19 18.39-34.71 25.48-34.71 32.56-34.71 37.96-29.19 37.96-21.71 37.96-14.3 32.56-8.84 25.48-8.84ZM65.45 0L65.45-43.55 54.73-43.55 54.73 0ZM72.99-43.55L72.99 0 83.72 0 83.72-13.33 93.99-13.33C104.06-13.33 110.44-19.37 110.44-28.54 110.44-37.51 104.26-43.55 94.44-43.55ZM83.72-22.3L83.72-34.38 93.21-34.38C97.37-34.38 99.91-31.92 99.91-28.41 99.91-24.7 97.37-22.3 93.21-22.3Z" transform="translate(-2.2699999809265137, 44.52000045776367)"></path></g> <!----> <!----> <!----> <!----> <!----> <!----> <!----></g></g> <g transform="translate(35.3850040435791,52.5)"><g data-gra="path-slogan" fill-rule="" class="tp-slogan" fill="#fff" transform="matrix(1,0,0,1,0,0)" opacity="1"><!----> <!----> <g mask="url(#13e550ed-eab4-45b6-8e07-eb9376a2f693)"><g><rect data-gra="graph-name-bg" stroke-width="2" class="i-icon-bg" x="0" y="0" width="37.39999961853027" height="12.160000801086426" fill-opacity="1"></rect> <!----> <!----> </g> <g transform="translate(5,2)"><g transform="scale(1, 1)" fill="#0077c0"><g transform="scale(1)"><path d="M0.50-1.02L1.10-1.72Q1.52-1.27 2.09-1.00Q2.66-0.73 3.28-0.73L3.28-0.73Q4.06-0.73 4.49-1.09Q4.92-1.44 4.92-2.02L4.92-2.02Q4.92-2.32 4.82-2.53Q4.72-2.74 4.54-2.89Q4.37-3.04 4.13-3.16Q3.89-3.28 3.61-3.41L3.61-3.41L2.48-3.90Q2.21-4.02 1.92-4.19Q1.63-4.36 1.40-4.60Q1.18-4.84 1.03-5.17Q0.89-5.50 0.89-5.93L0.89-5.93Q0.89-6.37 1.07-6.76Q1.26-7.14 1.59-7.42Q1.92-7.70 2.37-7.86Q2.82-8.02 3.36-8.02L3.36-8.02Q4.07-8.02 4.67-7.75Q5.27-7.48 5.69-7.04L5.69-7.04L5.15-6.40Q4.79-6.74 4.35-6.94Q3.91-7.14 3.36-7.14L3.36-7.14Q2.70-7.14 2.30-6.83Q1.90-6.53 1.90-5.99L1.90-5.99Q1.90-5.70 2.01-5.50Q2.12-5.30 2.32-5.15Q2.51-5.00 2.74-4.89Q2.96-4.78 3.20-4.68L3.20-4.68L4.32-4.20Q4.66-4.06 4.96-3.87Q5.26-3.68 5.47-3.44Q5.69-3.19 5.81-2.86Q5.94-2.53 5.94-2.10L5.94-2.10Q5.94-1.63 5.75-1.22Q5.57-0.82 5.22-0.51Q4.87-0.20 4.38-0.03Q3.89 0.14 3.26 0.14L3.26 0.14Q2.44 0.14 1.73-0.17Q1.02-0.48 0.50-1.02L0.50-1.02ZM7.45-3.25L7.45-7.87L8.45-7.87L8.45-3.23Q8.45-2.52 8.59-2.04Q8.74-1.56 8.98-1.27Q9.23-0.98 9.56-0.86Q9.90-0.73 10.28-0.73L10.28-0.73Q10.68-0.73 11.02-0.86Q11.35-0.98 11.60-1.27Q11.86-1.56 12-2.04Q12.14-2.52 12.14-3.23L12.14-3.23L12.14-7.87L13.10-7.87L13.10-3.25Q13.10-2.30 12.89-1.66Q12.67-1.01 12.29-0.61Q11.92-0.20 11.40-0.03Q10.88 0.14 10.28 0.14L10.28 0.14Q9.68 0.14 9.16-0.03Q8.64-0.20 8.26-0.61Q7.88-1.01 7.67-1.66Q7.45-2.30 7.45-3.25L7.45-3.25ZM14.77-3.94L14.77-3.94Q14.77-4.88 15.04-5.64Q15.30-6.40 15.77-6.92Q16.24-7.45 16.88-7.73Q17.52-8.02 18.28-8.02L18.28-8.02Q19.00-8.02 19.54-7.72Q20.08-7.43 20.42-7.04L20.42-7.04L19.86-6.41Q19.55-6.74 19.17-6.94Q18.79-7.14 18.29-7.14L18.29-7.14Q17.72-7.14 17.27-6.92Q16.81-6.70 16.49-6.28Q16.16-5.87 15.98-5.28Q15.80-4.69 15.80-3.96L15.80-3.96Q15.80-3.22 15.98-2.62Q16.15-2.03 16.46-1.61Q16.78-1.19 17.23-0.96Q17.68-0.73 18.24-0.73L18.24-0.73Q18.82-0.73 19.24-0.96Q19.67-1.19 20.05-1.61L20.05-1.61L20.62-1.00Q20.15-0.46 19.56-0.16Q18.97 0.14 18.22 0.14L18.22 0.14Q17.47 0.14 16.84-0.13Q16.21-0.41 15.75-0.93Q15.29-1.45 15.03-2.21Q14.77-2.98 14.77-3.94ZM22.08 0L22.08-7.87L23.08-7.87L23.08-3.92L23.11-3.92L26.39-7.87L27.52-7.87L25.06-4.87L27.90 0L26.78 0L24.43-4.09L23.08-2.50L23.08 0L22.08 0Z" transform="translate(-0.504, 8.016)"></path></g></g></g></g></g></g></g></g></g></g><mask id="13e550ed-eab4-45b6-8e07-eb9376a2f693"><g fill="white"><rect data-gra="graph-name-bg" stroke-width="2" class="i-icon-bg" x="0" y="0" width="37.39999961853027" height="12.160000801086426" fill-opacity="1"></rect>   </g> <g transform="translate(5,2)" fill="black"><g transform="scale(1, 1)"><g transform="scale(1)"><path d="M0.50-1.02L1.10-1.72Q1.52-1.27 2.09-1.00Q2.66-0.73 3.28-0.73L3.28-0.73Q4.06-0.73 4.49-1.09Q4.92-1.44 4.92-2.02L4.92-2.02Q4.92-2.32 4.82-2.53Q4.72-2.74 4.54-2.89Q4.37-3.04 4.13-3.16Q3.89-3.28 3.61-3.41L3.61-3.41L2.48-3.90Q2.21-4.02 1.92-4.19Q1.63-4.36 1.40-4.60Q1.18-4.84 1.03-5.17Q0.89-5.50 0.89-5.93L0.89-5.93Q0.89-6.37 1.07-6.76Q1.26-7.14 1.59-7.42Q1.92-7.70 2.37-7.86Q2.82-8.02 3.36-8.02L3.36-8.02Q4.07-8.02 4.67-7.75Q5.27-7.48 5.69-7.04L5.69-7.04L5.15-6.40Q4.79-6.74 4.35-6.94Q3.91-7.14 3.36-7.14L3.36-7.14Q2.70-7.14 2.30-6.83Q1.90-6.53 1.90-5.99L1.90-5.99Q1.90-5.70 2.01-5.50Q2.12-5.30 2.32-5.15Q2.51-5.00 2.74-4.89Q2.96-4.78 3.20-4.68L3.20-4.68L4.32-4.20Q4.66-4.06 4.96-3.87Q5.26-3.68 5.47-3.44Q5.69-3.19 5.81-2.86Q5.94-2.53 5.94-2.10L5.94-2.10Q5.94-1.63 5.75-1.22Q5.57-0.82 5.22-0.51Q4.87-0.20 4.38-0.03Q3.89 0.14 3.26 0.14L3.26 0.14Q2.44 0.14 1.73-0.17Q1.02-0.48 0.50-1.02L0.50-1.02ZM7.45-3.25L7.45-7.87L8.45-7.87L8.45-3.23Q8.45-2.52 8.59-2.04Q8.74-1.56 8.98-1.27Q9.23-0.98 9.56-0.86Q9.90-0.73 10.28-0.73L10.28-0.73Q10.68-0.73 11.02-0.86Q11.35-0.98 11.60-1.27Q11.86-1.56 12-2.04Q12.14-2.52 12.14-3.23L12.14-3.23L12.14-7.87L13.10-7.87L13.10-3.25Q13.10-2.30 12.89-1.66Q12.67-1.01 12.29-0.61Q11.92-0.20 11.40-0.03Q10.88 0.14 10.28 0.14L10.28 0.14Q9.68 0.14 9.16-0.03Q8.64-0.20 8.26-0.61Q7.88-1.01 7.67-1.66Q7.45-2.30 7.45-3.25L7.45-3.25ZM14.77-3.94L14.77-3.94Q14.77-4.88 15.04-5.64Q15.30-6.40 15.77-6.92Q16.24-7.45 16.88-7.73Q17.52-8.02 18.28-8.02L18.28-8.02Q19.00-8.02 19.54-7.72Q20.08-7.43 20.42-7.04L20.42-7.04L19.86-6.41Q19.55-6.74 19.17-6.94Q18.79-7.14 18.29-7.14L18.29-7.14Q17.72-7.14 17.27-6.92Q16.81-6.70 16.49-6.28Q16.16-5.87 15.98-5.28Q15.80-4.69 15.80-3.96L15.80-3.96Q15.80-3.22 15.98-2.62Q16.15-2.03 16.46-1.61Q16.78-1.19 17.23-0.96Q17.68-0.73 18.24-0.73L18.24-0.73Q18.82-0.73 19.24-0.96Q19.67-1.19 20.05-1.61L20.05-1.61L20.62-1.00Q20.15-0.46 19.56-0.16Q18.97 0.14 18.22 0.14L18.22 0.14Q17.47 0.14 16.84-0.13Q16.21-0.41 15.75-0.93Q15.29-1.45 15.03-2.21Q14.77-2.98 14.77-3.94ZM22.08 0L22.08-7.87L23.08-7.87L23.08-3.92L23.11-3.92L26.39-7.87L27.52-7.87L25.06-4.87L27.90 0L26.78 0L24.43-4.09L23.08-2.50L23.08 0L22.08 0Z" transform="translate(-0.504, 8.016)"></path></g></g></g></mask><defs v-gra="od"></defs></svg>
