<?xml version="1.0" encoding="UTF-8"?>
<!-- Do not edit this file with editors other than draw.io -->
<!DOCTYPE svg PUBLIC "-//W3C//DTD SVG 1.1//EN" "http://www.w3.org/Graphics/SVG/1.1/DTD/svg11.dtd">
<svg xmlns="http://www.w3.org/2000/svg" xmlns:xlink="http://www.w3.org/1999/xlink" version="1.1" width="131px"
     height="81px" viewBox="-0.5 -0.5 131 81"
     content="&lt;mxfile host=&quot;app.diagrams.net&quot; modified=&quot;2024-01-04T14:37:45.282Z&quot; agent=&quot;Mozilla/5.0 (Macintosh; Intel Mac OS X 10_15_7) AppleWebKit/537.36 (KHTML, like Gecko) Chrome/120.0.0.0 Safari/537.36&quot; etag=&quot;nsjzBFhmDqkVmkU3lgw9&quot; version=&quot;22.1.16&quot; type=&quot;device&quot;&gt;&#10;  &lt;diagram name=&quot;Страница — 1&quot; id=&quot;PTxVDr-E0xGSs8Vb_jNE&quot;&gt;&#10;    &lt;mxGraphModel dx=&quot;1383&quot; dy=&quot;977&quot; grid=&quot;1&quot; gridSize=&quot;10&quot; guides=&quot;1&quot; tooltips=&quot;1&quot; connect=&quot;1&quot; arrows=&quot;1&quot; fold=&quot;1&quot; page=&quot;1&quot; pageScale=&quot;1&quot; pageWidth=&quot;1169&quot; pageHeight=&quot;827&quot; math=&quot;0&quot; shadow=&quot;0&quot;&gt;&#10;      &lt;root&gt;&#10;        &lt;mxCell id=&quot;0&quot; /&gt;&#10;        &lt;mxCell id=&quot;1&quot; parent=&quot;0&quot; /&gt;&#10;        &lt;mxCell id=&quot;75c3By70_KTOf_5bTiG2-1&quot; value=&quot;&quot; style=&quot;rounded=0;whiteSpace=wrap;html=1;&quot; vertex=&quot;1&quot; parent=&quot;1&quot;&gt;&#10;          &lt;mxGeometry x=&quot;140&quot; y=&quot;240&quot; width=&quot;130&quot; height=&quot;80&quot; as=&quot;geometry&quot; /&gt;&#10;        &lt;/mxCell&gt;&#10;      &lt;/root&gt;&#10;    &lt;/mxGraphModel&gt;&#10;  &lt;/diagram&gt;&#10;&lt;/mxfile&gt;&#10;">
  <defs/>
  <g>
      <g data-gra="path-name" fill-rule="" class="tp-name iconsvg-namesvg" opacity="1" transform="matrix(1,0,0,1,0,0)">
        <g transform="scale(1)">
          <g>
            <path
              d="M26.71-41.93L26.71-41.93Q32.3-41.93 35.78-40.5 39.26-39.07 41.27-36.08L41.27-36.08Q42.58-34.06 43.29-31.53 44.01-28.99 44.01-25.68L44.01-25.68Q44.01-22.82 43.48-19.96 42.97-17.09 42.02-14.46 41.08-11.83 39.75-9.52 38.41-7.21 36.79-5.46L36.79-5.46Q33.73-2.15 29.74-0.81 25.74 0.52 19.89 0.52L19.89 0.52Q14.24 0.52 10.79-0.65 7.35-1.82 5.33-4.42L5.33-4.42Q3.9-6.24 3.09-9.04 2.27-11.83 2.27-16.05L2.27-16.05Q2.27-23.27 4.84-28.96 7.41-34.65 12.16-37.96L12.16-37.96Q15.02-39.98 18.53-40.95 22.04-41.93 26.71-41.93ZM19.37-4.03L19.37-4.03Q20.87-4.03 22.2-5.36 23.53-6.7 24.67-8.94 25.8-11.18 26.75-14.04 27.69-16.9 28.34-19.96 28.99-23.01 29.35-26.03 29.71-29.05 29.71-31.53L29.71-31.53Q29.71-34.91 29.02-36.17 28.34-37.44 27.04-37.44L27.04-37.44Q25.55-37.44 24.18-36.14 22.82-34.84 21.61-32.66 20.41-30.48 19.47-27.66 18.53-24.83 17.84-21.84 17.16-18.85 16.8-15.93 16.45-13 16.45-10.53L16.45-10.53Q16.45-6.83 17.26-5.43 18.07-4.03 19.37-4.03ZM67.41-41.27L58.56 0 44.52 0 53.3-41.27 67.41-41.27ZM83.59-17.81L86.58-17.81Q88.53-17.81 89.86-19.44 91.2-21.06 92.07-23.4 92.95-25.74 93.34-28.28 93.73-30.81 93.73-32.7L93.73-32.7Q93.73-34.45 93.15-35.65 92.56-36.86 90.61-36.86L90.61-36.86 87.69-36.86 83.59-17.81ZM86.39-13.65L82.68-13.65 79.76 0 65.72 0 74.49-41.27 89.5-41.27Q93.21-41.27 96.27-40.88 99.32-40.5 101.53-39.33 103.74-38.16 104.97-35.98 106.21-33.8 106.21-30.16L106.21-30.16Q106.21-26.78 105.14-23.76 104.06-20.73 101.69-18.49 99.32-16.25 95.55-14.95 91.78-13.65 86.39-13.65L86.39-13.65Z"
              transform="translate(-2.2699999809265137, 41.93000030517578)"></path>
          </g>
        </g>
      </g>
  </g>
</svg>
