<svg  version="1.0" xmlns="http://www.w3.org/2000/svg" xmlns:xlink="http://www.w3.org/1999/xlink"
     width="100%" height="100%" viewBox="0 0 340.000000 250.000000" preserveAspectRatio="xMidYMid meet"
     color-interpolation-filters="sRGB" style="margin: auto;">
  <g data-v-0dd9719b="" fill="#ffffff" class="icon-text-wrapper icon-svg-group iconsvg"
     transform="translate(118.02999877929688,70.32949829101562)">
    <g class="iconsvg-imagesvg" transform="matrix(1,0,0,1,21.970001220703125,0)" opacity="1">
      <g>
        <rect fill="#ffffff" fill-opacity="0" stroke-width="2" x="0" y="0" width="60" height="59.890998382943046"
              class="image-rect"></rect>
        <svg filter="url(#colors1768278073)" x="0" y="0" width="60" height="59.890998382943046"
             filtersec="colorsf3595532063" class="image-svg-svg primary" style="overflow: visible;">
          <svg xmlns="http://www.w3.org/2000/svg"
               viewBox="0.011198324151337147 0.001194000244140625 102.82463073730469 102.63751220703125">
            <path
              d="M12.66 85.25A51.67 51.67 0 0 1 .89 60.92a54.33 54.33 0 0 1 .84-23.29c.56-2.27 1.59-3.15 4.09-3.14 21.34.12 42.68 0 64 .1a6 6 0 0 0 4.83-2c4.32-4.51 8.79-8.88 13.21-13.3.63-.64 1.31-1.23 2.1-2a47 47 0 0 1 9.67 16.08 52.39 52.39 0 0 1 1.53 31.19c-.84 3.45-.84 3.52-4.46 3.52-20.92 0-41.85.06-62.77-.06A8.5 8.5 0 0 0 27 71c-3.9 4.21-8 8.19-12.11 12.26-.65.6-1.33 1.18-2.23 1.99zM90.53 42.5a16.22 16.22 0 0 0-2.08-.37q-28.49 0-57 .06a4.46 4.46 0 0 0-2.8 1.22c-5 4.82-9.81 9.74-14.68 14.64a23 23 0 0 0-1.61 2.18 18.6 18.6 0 0 0 2.41.38h56A5.24 5.24 0 0 0 74 59.18c4.91-4.75 9.69-9.63 14.51-14.47.58-.57 1.09-1.18 2.02-2.21zM14.24 15.92c17.94-20.29 54-22.14 74.41 0zM88.18 86.92c-17.51 19.89-53.3 22-73.72 0z"
              fill="#000000"></path>
          </svg>
        </svg>
        <defs>
          <filter id="colors1768278073">
            <feColorMatrix type="matrix" values="0 0 0 0 0.99609375  0 0 0 0 0.99609375  0 0 0 0 0.99609375  0 0 0 1 0"
                           class="icon-fecolormatrix"></feColorMatrix>
          </filter>
          <filter id="colorsf3595532063">
            <feColorMatrix type="matrix" values="0 0 0 0 0.99609375  0 0 0 0 0.99609375  0 0 0 0 0.99609375  0 0 0 1 0"
                           class="icon-fecolormatrix"></feColorMatrix>
          </filter>
          <filter id="colorsb2840196164">
            <feColorMatrix type="matrix" values="0 0 0 0 0  0 0 0 0 0  0 0 0 0 0  0 0 0 1 0"
                           class="icon-fecolormatrix"></feColorMatrix>
          </filter>
        </defs>
      </g>
    </g>
    <g transform="translate(0,66.89099884033203)">
      <g data-gra="path-name" fill-rule="" class="tp-name iconsvg-namesvg" opacity="1" transform="matrix(1,0,0,1,0,0)">
        <g transform="scale(1)">
          <g>
            <path
              d="M26.71-41.93L26.71-41.93Q32.3-41.93 35.78-40.5 39.26-39.07 41.27-36.08L41.27-36.08Q42.58-34.06 43.29-31.53 44.01-28.99 44.01-25.68L44.01-25.68Q44.01-22.82 43.48-19.96 42.97-17.09 42.02-14.46 41.08-11.83 39.75-9.52 38.41-7.21 36.79-5.46L36.79-5.46Q33.73-2.15 29.74-0.81 25.74 0.52 19.89 0.52L19.89 0.52Q14.24 0.52 10.79-0.65 7.35-1.82 5.33-4.42L5.33-4.42Q3.9-6.24 3.09-9.04 2.27-11.83 2.27-16.05L2.27-16.05Q2.27-23.27 4.84-28.96 7.41-34.65 12.16-37.96L12.16-37.96Q15.02-39.98 18.53-40.95 22.04-41.93 26.71-41.93ZM19.37-4.03L19.37-4.03Q20.87-4.03 22.2-5.36 23.53-6.7 24.67-8.94 25.8-11.18 26.75-14.04 27.69-16.9 28.34-19.96 28.99-23.01 29.35-26.03 29.71-29.05 29.71-31.53L29.71-31.53Q29.71-34.91 29.02-36.17 28.34-37.44 27.04-37.44L27.04-37.44Q25.55-37.44 24.18-36.14 22.82-34.84 21.61-32.66 20.41-30.48 19.47-27.66 18.53-24.83 17.84-21.84 17.16-18.85 16.8-15.93 16.45-13 16.45-10.53L16.45-10.53Q16.45-6.83 17.26-5.43 18.07-4.03 19.37-4.03ZM67.41-41.27L58.56 0 44.52 0 53.3-41.27 67.41-41.27ZM83.59-17.81L86.58-17.81Q88.53-17.81 89.86-19.44 91.2-21.06 92.07-23.4 92.95-25.74 93.34-28.28 93.73-30.81 93.73-32.7L93.73-32.7Q93.73-34.45 93.15-35.65 92.56-36.86 90.61-36.86L90.61-36.86 87.69-36.86 83.59-17.81ZM86.39-13.65L82.68-13.65 79.76 0 65.72 0 74.49-41.27 89.5-41.27Q93.21-41.27 96.27-40.88 99.32-40.5 101.53-39.33 103.74-38.16 104.97-35.98 106.21-33.8 106.21-30.16L106.21-30.16Q106.21-26.78 105.14-23.76 104.06-20.73 101.69-18.49 99.32-16.25 95.55-14.95 91.78-13.65 86.39-13.65L86.39-13.65Z"
              transform="translate(-2.2699999809265137, 41.93000030517578)"></path>
          </g>
        </g>
      </g>
    </g>
  </g>
</svg>
